<svg width="281" height="64" viewBox="0 0 281 64" fill="none" xmlns="http://www.w3.org/2000/svg">
<path d="M41.0312 0.690002L15.2255 58.527C14.6069 59.913 13.599 61.0904 12.3238 61.9167C11.0487 62.743 9.56092 63.1828 8.04051 63.183H0.625061V6.683C0.625061 5.09488 1.25726 3.57181 2.38257 2.44884C3.50788 1.32588 5.03413 0.695 6.62556 0.695L41.0312 0.690002Z" fill="#32499B"/>
<path d="M63.2455 0.690002V57.2C63.2457 57.9863 63.0906 58.7649 62.7891 59.4914C62.4877 60.2179 62.0458 60.878 61.4887 61.4341C60.9316 61.9901 60.2701 62.4312 59.5422 62.7322C58.8142 63.0331 58.034 63.188 57.246 63.188H22.8223L48.6281 5.351C49.2455 3.9644 50.2526 2.78616 51.5272 1.95892C52.8019 1.13168 54.2895 0.690923 55.81 0.690002H63.2455Z" fill="#32499B"/>
<path d="M104.612 26.046C105.96 27.833 106.586 30.0604 106.366 32.2865C106.145 34.5125 105.095 36.5747 103.422 38.064C101.431 39.7307 98.6546 40.564 95.0939 40.564H79.2168V6.54199H94.5608C98.0253 6.54199 100.737 7.33333 102.695 8.91599C104.297 10.3181 105.322 12.2622 105.573 14.3737C105.824 16.4852 105.283 18.6147 104.055 20.352C102.98 21.6911 101.51 22.6579 99.8538 23.115C101.744 23.4835 103.435 24.5252 104.612 26.046ZM87.5201 20.3H92.9584C94.0757 20.373 95.1836 20.0547 96.091 19.4C96.4643 19.0732 96.757 18.665 96.9465 18.2069C97.1359 17.7489 97.2169 17.2534 97.1832 16.759C97.2154 16.2612 97.1338 15.7627 96.9445 15.301C96.7553 14.8393 96.4634 14.4266 96.091 14.094C95.1896 13.4254 94.0791 13.0989 92.9584 13.173H87.5201V20.3ZM96.8676 32.923C97.2553 32.5844 97.5599 32.1614 97.7579 31.6867C97.9558 31.2119 98.0417 30.6981 98.0089 30.185C98.036 29.6574 97.9431 29.1305 97.7371 28.6439C97.5311 28.1572 97.2174 27.7234 96.8195 27.375C95.8866 26.6505 94.7218 26.2887 93.5416 26.357H87.5201V33.868H93.6328C94.7884 33.9436 95.9337 33.6104 96.8676 32.927V32.923Z" fill="#102245"/>
<path d="M111.827 19.583C112.764 17.624 114.234 15.9668 116.069 14.8C117.864 13.6825 119.943 13.1016 122.059 13.126C123.783 13.0881 125.488 13.4829 127.019 14.274C128.363 14.968 129.497 16.0083 130.302 17.287V13.509H136.177C136.482 13.5089 136.784 13.5687 137.066 13.685C137.348 13.8013 137.604 13.9719 137.819 14.187C138.035 14.4021 138.206 14.6574 138.322 14.9385C138.439 15.2195 138.499 15.5208 138.499 15.825V40.579H130.303V36.418C129.472 37.6919 128.324 38.7298 126.972 39.431C125.441 40.2221 123.736 40.6169 122.012 40.579C119.908 40.5981 117.844 40.0076 116.07 38.879C114.233 37.6944 112.764 36.0216 111.828 34.049C110.8 31.7751 110.269 29.3093 110.269 26.815C110.269 24.3207 110.8 21.8549 111.828 19.581L111.827 19.583ZM128.601 22.022C128.065 21.4645 127.422 21.0204 126.711 20.7163C126 20.4122 125.234 20.2544 124.46 20.2521C123.686 20.2499 122.92 20.4033 122.207 20.7033C121.493 21.0033 120.848 21.4436 120.309 21.998C119.72 22.6465 119.266 23.4054 118.974 24.2307C118.681 25.056 118.556 25.931 118.606 26.805C118.512 28.5836 119.124 30.3277 120.309 31.659C120.841 32.2234 121.482 32.6736 122.194 32.9821C122.906 33.2905 123.674 33.4508 124.45 33.4531C125.226 33.4553 125.994 33.2995 126.708 32.9951C127.422 32.6908 128.066 32.2443 128.601 31.683C129.702 30.3129 130.302 28.6089 130.302 26.8525C130.302 25.0961 129.702 23.3921 128.601 22.022Z" fill="#102245"/>
<path d="M156.773 14.489C158.226 13.6406 159.883 13.2026 161.566 13.222V21.879H159.314C157.672 21.7557 156.04 22.2221 154.712 23.194C153.69 24.0707 153.179 25.609 153.179 27.809V40.579H144.983V13.509H153.179V17.957C154.089 16.5369 155.32 15.3492 156.773 14.489Z" fill="#102245"/>
<path d="M178.484 14.489C179.937 13.6406 181.593 13.2026 183.277 13.222V21.879H181.024C179.382 21.7557 177.751 22.2221 176.423 23.194C175.401 24.0707 174.889 25.609 174.889 27.809V40.579H166.694V13.509H174.889V17.957C175.8 16.5369 177.031 15.3492 178.484 14.489Z" fill="#102245"/>
<path d="M187.678 19.583C188.615 17.6238 190.084 15.9666 191.919 14.8C193.715 13.6827 195.794 13.1018 197.91 13.126C199.634 13.0881 201.339 13.4829 202.87 14.274C204.215 14.968 205.348 16.0083 206.153 17.287V13.509H212.028C212.332 13.509 212.634 13.5689 212.916 13.6853C213.197 13.8017 213.453 13.9723 213.669 14.1873C213.884 14.4024 214.055 14.6577 214.172 14.9387C214.288 15.2197 214.348 15.5209 214.348 15.825V40.579H206.153V36.418C205.321 37.6917 204.174 38.7295 202.822 39.431C201.291 40.2221 199.586 40.6169 197.862 40.579C195.758 40.5982 193.693 40.0076 191.919 38.879C190.082 37.6946 188.613 36.0218 187.678 34.049C186.65 31.7751 186.119 29.3093 186.119 26.815C186.119 24.3207 186.65 21.8549 187.678 19.581V19.583ZM204.452 22.022C203.916 21.4645 203.273 21.0204 202.562 20.7163C201.851 20.4122 201.085 20.2544 200.311 20.2521C199.537 20.2499 198.771 20.4033 198.058 20.7033C197.345 21.0033 196.699 21.4436 196.16 21.998C195.571 22.6465 195.117 23.4054 194.825 24.2307C194.532 25.056 194.407 25.931 194.457 26.805C194.363 28.5836 194.975 30.3277 196.16 31.659C196.692 32.2234 197.333 32.6736 198.045 32.9821C198.757 33.2905 199.525 33.4508 200.301 33.4531C201.077 33.4553 201.845 33.2995 202.559 32.9951C203.273 32.6908 203.917 32.2443 204.452 31.683C205.553 30.3129 206.153 28.6089 206.153 26.8525C206.153 25.0961 205.553 23.3921 204.452 22.022Z" fill="#102245"/>
<path d="M224.909 33.309C228.04 30.7257 230.508 28.6053 232.314 26.948C234.032 25.3889 235.568 23.64 236.891 21.735C238.041 20.1965 238.693 18.3443 238.76 16.426C238.826 15.3306 238.504 14.247 237.849 13.365C237.509 12.9854 237.085 12.6889 236.612 12.4982C236.138 12.3075 235.627 12.2277 235.118 12.265C234.567 12.2425 234.019 12.355 233.522 12.5926C233.025 12.8302 232.593 13.1857 232.266 13.628C231.513 14.7658 231.151 16.1171 231.235 17.478H223.328C223.303 15.1004 223.906 12.7582 225.077 10.687C226.097 8.94412 227.616 7.54504 229.439 6.66901C231.32 5.79219 233.375 5.35087 235.451 5.37801C239.253 5.37801 242.121 6.35068 244.054 8.29601C245.028 9.30113 245.787 10.4929 246.285 11.7993C246.784 13.1056 247.011 14.4993 246.954 15.896C246.931 19.3708 245.694 22.7285 243.455 25.39C240.836 28.5822 237.841 31.4485 234.536 33.927H247.476V38.259C247.476 38.8733 247.232 39.4623 246.797 39.8967C246.361 40.331 245.771 40.575 245.155 40.575H223.423V34.5C224.509 33.642 225.005 33.245 224.909 33.309Z" fill="#102245"/>
<path d="M252.467 34.376V27.776L268.133 5.414L276.77 5.5V27.3H280.701V34.378H276.77V38.278C276.77 38.8922 276.526 39.4813 276.091 39.9157C275.655 40.35 275.065 40.594 274.45 40.594H268.575V34.377L252.467 34.376ZM269.145 15.149L261.094 27.3H269.145V15.149Z" fill="#102245"/>
<path d="M86.3857 52.552L82.8273 51.135C81.9335 50.768 81.6529 50.348 81.6529 49.578V49.298C81.6529 48.406 82.3012 47.951 83.616 47.951H87.6654C87.8408 47.951 87.9279 47.846 87.9279 47.651V46.566C87.9279 46.409 87.8408 46.322 87.6484 46.287C86.4827 46.1028 85.3052 46.0025 84.125 45.987C81.3372 45.987 79.3922 46.512 79.3922 49.153V49.553C79.3922 51.302 79.8651 52.299 81.25 52.806L85.0359 54.293C86.018 54.693 86.3386 55.133 86.3386 55.972V56.272C86.3386 57.146 85.69 57.5833 84.3926 57.584H79.5024C79.309 57.584 79.2218 57.671 79.2218 57.863V58.913C79.2148 58.9868 79.2363 59.0606 79.2819 59.1191C79.3276 59.1777 79.3939 59.2166 79.4673 59.228C80.8941 59.4372 82.3342 59.5425 83.7763 59.543C84.9469 59.6096 86.1169 59.4042 87.1944 58.943C87.6593 58.6991 88.041 58.3226 88.2908 57.8616C88.5406 57.4006 88.6473 56.8758 88.5973 56.354V55.812C88.6807 55.0944 88.5034 54.3708 88.0975 53.7726C87.6917 53.1744 87.0843 52.7413 86.3857 52.552Z" fill="#30B88E"/>
<path d="M94.7461 49.7C93.0105 49.7 91.8541 50.032 91.311 50.679C90.7678 51.326 90.4872 52.638 90.4872 54.632C90.4872 56.609 90.7668 57.939 91.311 58.586C91.8551 59.233 93.0145 59.548 94.7461 59.548C96.4777 59.548 97.6381 59.233 98.1823 58.586C98.7424 57.939 99.023 56.609 99.023 54.632C99.023 52.638 98.7424 51.326 98.1823 50.679C97.6381 50.033 96.4817 49.7 94.7461 49.7ZM96.4988 57.134C96.2362 57.519 95.658 57.711 94.7461 57.711C93.8342 57.711 93.256 57.519 92.9935 57.134C92.4797 55.5068 92.4797 53.7613 92.9935 52.134C93.256 51.734 93.8352 51.534 94.7461 51.534C95.657 51.534 96.2362 51.727 96.4988 52.134C97.0126 53.7613 97.0126 55.5068 96.4988 57.134Z" fill="#30B88E"/>
<path d="M103.282 46.08H101.687C101.542 46.08 101.424 46.1973 101.424 46.342V59.199C101.424 59.3437 101.542 59.461 101.687 59.461H103.282C103.427 59.461 103.544 59.3437 103.544 59.199V46.342C103.544 46.1973 103.427 46.08 103.282 46.08Z" fill="#30B88E"/>
<path d="M114.255 49.788H112.642C112.607 49.7828 112.57 49.786 112.536 49.7974C112.501 49.8088 112.47 49.828 112.445 49.8535C112.419 49.8791 112.4 49.9102 112.388 49.9445C112.377 49.9788 112.374 50.0153 112.379 50.051V57.712H110.364C109.435 57.712 109.101 57.695 108.733 57.327C108.366 56.959 108.312 56.327 108.312 55.001V50.051C108.312 49.875 108.225 49.788 108.067 49.788H106.49C106.296 49.788 106.189 49.875 106.189 50.051V55.386C106.189 57.257 106.364 58.219 107.066 58.831C107.767 59.443 108.591 59.549 110.344 59.549C111.653 59.5715 112.961 59.471 114.252 59.249C114.427 59.214 114.514 59.197 114.514 58.97V50.049C114.519 50.0138 114.516 49.978 114.504 49.9443C114.493 49.9106 114.474 49.88 114.449 49.8548C114.424 49.8295 114.393 49.8104 114.36 49.7988C114.326 49.7873 114.29 49.7836 114.255 49.788Z" fill="#30B88E"/>
<path d="M123.947 49.893C123.031 49.7564 122.105 49.6922 121.178 49.701C119.354 49.701 118.355 49.911 117.707 50.701C117.076 51.488 116.918 52.537 116.918 54.619C116.918 56.631 117.181 57.943 117.72 58.59C118.259 59.237 119.403 59.552 121.173 59.552C122.1 59.5611 123.026 59.4965 123.942 59.359C124.018 59.3514 124.089 59.3141 124.138 59.2552C124.188 59.1963 124.212 59.1205 124.206 59.044V57.977C124.206 57.803 124.117 57.715 123.925 57.715H121.173C120.261 57.715 119.683 57.523 119.42 57.115C119.104 56.3214 118.979 55.4655 119.052 54.615C118.976 53.7696 119.102 52.9184 119.42 52.131C119.683 51.731 120.261 51.531 121.173 51.531H123.925C124.117 51.531 124.206 51.444 124.206 51.269V50.202C124.21 50.1273 124.186 50.0536 124.138 49.9962C124.09 49.9387 124.021 49.9018 123.947 49.893Z" fill="#30B88E"/>
<path d="M127.452 45.817C127.288 45.8075 127.123 45.8317 126.968 45.8881C126.813 45.9445 126.671 46.0319 126.551 46.1449C126.431 46.2579 126.335 46.3942 126.27 46.5453C126.205 46.6965 126.171 46.8594 126.171 47.024C126.171 47.1886 126.205 47.3515 126.27 47.5027C126.335 47.6539 126.431 47.7901 126.551 47.9031C126.671 48.0161 126.813 48.1035 126.968 48.1599C127.123 48.2163 127.288 48.2405 127.452 48.231C128.294 48.231 128.715 47.8287 128.714 47.024C128.713 46.2193 128.293 45.817 127.452 45.817Z" fill="#30B88E"/>
<path d="M126.647 49.788H128.241C128.311 49.788 128.377 49.8156 128.427 49.8647C128.476 49.9139 128.503 49.9805 128.503 50.05V59.199C128.503 59.2685 128.476 59.3351 128.427 59.3843C128.377 59.4334 128.311 59.461 128.241 59.461H126.646C126.576 59.461 126.509 59.4334 126.46 59.3843C126.411 59.3351 126.383 59.2685 126.383 59.199V50.051C126.383 49.9812 126.411 49.9143 126.46 49.865C126.51 49.8157 126.577 49.788 126.647 49.788Z" fill="#30B88E"/>
<path d="M135.164 49.7C133.429 49.7 132.272 50.032 131.729 50.679C131.186 51.326 130.905 52.638 130.905 54.632C130.905 56.609 131.185 57.939 131.729 58.586C132.273 59.233 133.433 59.548 135.164 59.548C136.896 59.548 138.056 59.233 138.6 58.586C139.161 57.939 139.441 56.609 139.441 54.632C139.441 52.638 139.161 51.326 138.6 50.679C138.056 50.033 136.9 49.7 135.164 49.7ZM136.918 57.134C136.654 57.519 136.076 57.711 135.164 57.711C134.252 57.711 133.674 57.519 133.412 57.134C132.898 55.5068 132.898 53.7613 133.412 52.134C133.674 51.734 134.253 51.534 135.164 51.534C136.075 51.534 136.654 51.727 136.918 52.134C137.43 53.7615 137.43 55.5066 136.918 57.134Z" fill="#30B88E"/>
<path d="M149.257 50.418C148.573 49.806 147.754 49.701 145.997 49.701C144.682 49.6685 143.367 49.7619 142.07 49.98C141.912 50.016 141.825 50.033 141.825 50.26V59.2C141.825 59.375 141.912 59.462 142.07 59.462H143.683C143.719 59.4672 143.755 59.464 143.789 59.4527C143.824 59.4414 143.855 59.4222 143.88 59.3968C143.906 59.3713 143.925 59.3403 143.936 59.3061C143.948 59.272 143.951 59.2356 143.946 59.2V51.538H145.962C146.307 51.5306 146.653 51.5483 146.996 51.591C147.227 51.634 147.438 51.7505 147.597 51.923C147.965 52.273 148.017 52.903 148.017 54.232V59.2C148.012 59.2357 148.015 59.272 148.027 59.3062C148.038 59.3403 148.058 59.3713 148.083 59.3968C148.109 59.4222 148.14 59.4413 148.174 59.4526C148.208 59.464 148.245 59.4672 148.281 59.462H149.858C150.05 59.462 150.139 59.375 150.139 59.2V53.847C150.134 51.975 149.958 50.995 149.257 50.418Z" fill="#30B88E"/>
<path d="M156.653 49.7C154.95 49.7 153.813 50.032 153.27 50.679C152.727 51.326 152.468 52.656 152.468 54.632C152.468 56.608 152.748 57.939 153.292 58.586C153.836 59.233 154.958 59.548 156.657 59.548C157.706 59.5575 158.755 59.493 159.795 59.355C159.866 59.3451 159.931 59.3087 159.976 59.253C160.022 59.1974 160.045 59.1267 160.04 59.055V57.97C160.045 57.9344 160.042 57.8982 160.03 57.8641C160.019 57.8301 160 57.7991 159.974 57.7737C159.949 57.7483 159.918 57.7292 159.884 57.7178C159.85 57.7064 159.813 57.703 159.778 57.708H156.78C156.173 57.7821 155.56 57.6262 155.063 57.271C154.708 56.7274 154.547 56.0801 154.607 55.434H160.163C160.636 55.434 160.759 55.312 160.759 54.962V54.437C160.742 52.46 160.566 51.411 159.918 50.659C159.283 49.911 158.354 49.7 156.653 49.7ZM154.603 53.915C154.547 53.2572 154.694 52.5981 155.024 52.026C155.244 51.8315 155.503 51.687 155.785 51.6024C156.066 51.5178 156.362 51.4952 156.653 51.536C156.933 51.4969 157.219 51.5205 157.489 51.6053C157.759 51.6901 158.006 51.8338 158.213 52.026C158.535 52.6009 158.675 53.2594 158.614 53.915H154.603Z" fill="#30B88E"/>
<path d="M168.082 54.319L165.785 53.479C165.137 53.234 164.821 52.879 164.821 52.447V52.237C164.821 51.73 165.207 51.467 165.978 51.467H169.203C169.397 51.467 169.484 51.38 169.484 51.205V50.173C169.484 50.016 169.397 49.928 169.221 49.893C168.316 49.7621 167.402 49.6979 166.487 49.701C164.049 49.701 162.718 50.278 162.718 52.045V52.394C162.672 52.9579 162.821 53.5204 163.14 53.9883C163.459 54.4561 163.928 54.8011 164.47 54.966L166.784 55.84C167.556 56.12 167.786 56.4 167.786 56.84V57.015C167.786 57.627 167.437 57.767 166.244 57.767H162.844C162.806 57.7606 162.766 57.7634 162.729 57.7751C162.692 57.7869 162.659 57.8074 162.631 57.8348C162.604 57.8622 162.583 57.8958 162.572 57.9327C162.56 57.9696 162.557 58.0088 162.563 58.047V59.132C162.563 59.289 162.651 59.377 162.826 59.394C163.983 59.4987 165.122 59.5513 166.244 59.552C168.715 59.552 169.873 58.992 169.873 57.103V56.875C169.937 56.3044 169.791 55.73 169.461 55.2594C169.131 54.7888 168.641 54.4544 168.082 54.319Z" fill="#30B88E"/>
<path d="M180.333 57.712H179.562C178.703 57.712 178.476 57.555 178.476 56.785V51.45H180.21C180.248 51.4565 180.288 51.4537 180.325 51.4419C180.362 51.4301 180.395 51.4096 180.423 51.3822C180.45 51.3548 180.471 51.3213 180.483 51.2843C180.494 51.2474 180.497 51.2082 180.491 51.17V50.07C180.491 49.895 180.404 49.808 180.21 49.808H178.476V47.359C178.476 47.131 178.37 47.059 178.175 47.114L176.581 47.514C176.511 47.5199 176.447 47.5523 176.401 47.6046C176.355 47.6568 176.332 47.7247 176.335 47.794V49.806H175.333C175.14 49.806 175.052 49.893 175.052 50.068V51.168C175.046 51.2062 175.049 51.2454 175.061 51.2824C175.072 51.3193 175.093 51.3528 175.12 51.3802C175.148 51.4076 175.181 51.4281 175.218 51.4399C175.255 51.4517 175.295 51.4545 175.333 51.448H176.335V57.413C176.405 58.69 176.79 59.197 177.562 59.407C178.072 59.5286 178.598 59.5757 179.122 59.547C179.54 59.5455 179.957 59.5043 180.367 59.424C180.443 59.4164 180.513 59.3791 180.562 59.3202C180.612 59.2612 180.636 59.1854 180.629 59.109V57.955C180.631 57.8 180.526 57.712 180.333 57.712Z" fill="#30B88E"/>
<path d="M186.45 49.7C184.747 49.7 183.61 50.032 183.067 50.679C182.524 51.326 182.266 52.656 182.266 54.632C182.266 56.608 182.545 57.939 183.089 58.586C183.633 59.233 184.754 59.548 186.454 59.548C187.503 59.5575 188.552 59.493 189.592 59.355C189.663 59.3451 189.728 59.3087 189.773 59.253C189.819 59.1974 189.842 59.1267 189.837 59.055V57.97C189.842 57.9344 189.839 57.8982 189.828 57.8641C189.816 57.8301 189.797 57.7991 189.771 57.7737C189.746 57.7483 189.715 57.7292 189.681 57.7178C189.647 57.7064 189.61 57.703 189.575 57.708H186.577C185.97 57.782 185.357 57.6261 184.859 57.271C184.505 56.727 184.345 56.08 184.404 55.434H189.961C190.434 55.434 190.556 55.312 190.556 54.962V54.437C190.539 52.46 190.363 51.411 189.715 50.659C189.08 49.911 188.151 49.7 186.45 49.7ZM184.4 53.915C184.344 53.2572 184.491 52.5981 184.821 52.026C185.041 51.8315 185.3 51.687 185.582 51.6024C185.863 51.5178 186.159 51.4952 186.45 51.536C186.73 51.4969 187.016 51.5205 187.286 51.6053C187.556 51.6901 187.803 51.8338 188.01 52.026C188.332 52.6011 188.471 53.2594 188.411 53.915H184.4Z" fill="#30B88E"/>
<path d="M199.526 49.893C198.61 49.7563 197.684 49.6921 196.757 49.701C194.934 49.701 193.935 49.911 193.286 50.701C192.655 51.488 192.498 52.537 192.498 54.619C192.498 56.631 192.76 57.943 193.299 58.59C193.839 59.237 194.983 59.552 196.753 59.552C197.68 59.5611 198.606 59.4966 199.522 59.359C199.599 59.3514 199.669 59.3141 199.718 59.2552C199.767 59.1962 199.791 59.1204 199.785 59.044V57.977C199.785 57.803 199.698 57.715 199.504 57.715H196.753C195.841 57.715 195.263 57.523 195 57.115C194.684 56.3215 194.559 55.4655 194.632 54.615C194.556 53.7696 194.682 52.9182 195 52.131C195.263 51.731 195.841 51.531 196.753 51.531H199.509C199.703 51.531 199.79 51.444 199.79 51.269V50.202C199.795 50.1264 199.77 50.052 199.721 49.9944C199.672 49.9367 199.602 49.9004 199.526 49.893Z" fill="#30B88E"/>
<path d="M209.377 50.418C208.694 49.806 207.869 49.701 206.116 49.701C204.802 49.6684 203.487 49.7618 202.19 49.98C202.033 50.016 201.944 50.033 201.944 50.26V59.2C201.944 59.375 202.033 59.462 202.19 59.462H203.802C203.838 59.4672 203.874 59.464 203.909 59.4526C203.943 59.4413 203.974 59.4222 204 59.3968C204.025 59.3713 204.045 59.3403 204.056 59.3062C204.068 59.272 204.071 59.2357 204.066 59.2V51.538H206.081C206.427 51.5306 206.772 51.5483 207.115 51.591C207.346 51.6338 207.557 51.7503 207.716 51.923C208.084 52.273 208.137 52.903 208.137 54.232V59.2C208.132 59.2356 208.135 59.272 208.147 59.3061C208.158 59.3403 208.177 59.3713 208.203 59.3968C208.228 59.4222 208.259 59.4414 208.294 59.4527C208.328 59.464 208.364 59.4672 208.4 59.462H209.977C210.171 59.462 210.258 59.375 210.258 59.2V53.847C210.253 51.975 210.077 50.995 209.377 50.418Z" fill="#30B88E"/>
<path d="M216.846 49.7C215.11 49.7 213.953 50.032 213.409 50.679C212.865 51.326 212.586 52.638 212.586 54.632C212.586 56.609 212.866 57.939 213.409 58.586C213.952 59.233 215.113 59.548 216.846 59.548C218.578 59.548 219.738 59.233 220.281 58.586C220.842 57.939 221.122 56.609 221.122 54.632C221.122 52.638 220.842 51.326 220.281 50.679C219.736 50.033 218.579 49.7 216.846 49.7ZM218.598 57.134C218.336 57.519 217.756 57.711 216.846 57.711C215.935 57.711 215.355 57.519 215.093 57.134C214.579 55.5068 214.579 53.7613 215.093 52.134C215.355 51.734 215.934 51.534 216.846 51.534C217.757 51.534 218.336 51.727 218.598 52.134C219.112 53.7613 219.112 55.5068 218.598 57.134Z" fill="#30B88E"/>
<path d="M225.379 46.08H223.784C223.639 46.08 223.521 46.1973 223.521 46.342V59.199C223.521 59.3437 223.639 59.461 223.784 59.461H225.379C225.524 59.461 225.642 59.3437 225.642 59.199V46.342C225.642 46.1973 225.524 46.08 225.379 46.08Z" fill="#30B88E"/>
<path d="M232.303 49.7C230.567 49.7 229.411 50.032 228.867 50.679C228.322 51.326 228.043 52.638 228.043 54.632C228.043 56.609 228.323 57.939 228.867 58.586C229.41 59.233 230.57 59.548 232.303 59.548C234.035 59.548 235.195 59.233 235.738 58.586C236.299 57.939 236.58 56.609 236.58 54.632C236.58 52.638 236.299 51.326 235.738 50.679C235.195 50.033 234.038 49.7 232.303 49.7ZM234.055 57.134C233.793 57.519 233.214 57.711 232.303 57.711C231.392 57.711 230.813 57.519 230.55 57.134C230.036 55.5068 230.036 53.7613 230.55 52.134C230.813 51.734 231.391 51.534 232.303 51.534C233.215 51.534 233.793 51.727 234.055 52.134C234.569 53.7613 234.569 55.5068 234.055 57.134Z" fill="#30B88E"/>
<path d="M231.444 48.441L231.987 48.774C232.023 48.7995 232.066 48.8132 232.11 48.8132C232.154 48.8132 232.197 48.7995 232.233 48.774L235.002 46.412C235.03 46.3846 235.053 46.3519 235.067 46.3159C235.082 46.2798 235.09 46.241 235.09 46.202V46.08C235.09 45.957 235.037 45.905 234.914 45.905H232.879C232.838 45.8994 232.796 45.9058 232.759 45.9236C232.721 45.9414 232.69 45.9697 232.669 46.005L231.389 48.191C231.374 48.2104 231.364 48.2328 231.359 48.2565C231.354 48.2803 231.354 48.3049 231.359 48.3286C231.364 48.3523 231.375 48.3746 231.389 48.394C231.404 48.4134 231.423 48.4294 231.444 48.441Z" fill="#30B88E"/>
<path d="M246.728 50.016C245.496 49.7918 244.246 49.6863 242.994 49.701C241.241 49.701 240.088 50.033 239.506 50.68C238.946 51.327 238.665 52.604 238.665 54.546C238.665 56.523 238.928 57.852 239.467 58.534C240.006 59.216 241.08 59.549 242.692 59.549C243.443 59.5563 244.194 59.5035 244.936 59.391V59.479C244.969 59.7327 244.947 59.9906 244.872 60.2351C244.796 60.4795 244.669 60.7049 244.498 60.896C243.978 61.2124 243.368 61.3475 242.763 61.28H240.028C239.992 61.275 239.956 61.2783 239.921 61.2898C239.887 61.3012 239.856 61.3205 239.831 61.346C239.805 61.3715 239.786 61.4026 239.775 61.4368C239.763 61.471 239.76 61.5073 239.765 61.543V62.575C239.762 62.6442 239.786 62.712 239.832 62.7642C239.877 62.8163 239.942 62.8489 240.011 62.855C240.963 62.9862 241.923 63.0504 242.885 63.047C244.971 63.047 246.128 62.662 246.602 61.665C246.976 60.7942 247.132 59.8456 247.057 58.901V50.365C247.062 50.3197 247.057 50.2739 247.043 50.2307C247.028 50.1876 247.004 50.148 246.973 50.1149C246.942 50.0817 246.904 50.0557 246.861 50.0387C246.819 50.0216 246.773 50.0139 246.728 50.016ZM244.94 57.59C244.306 57.6686 243.668 57.7037 243.029 57.695C242.065 57.695 241.452 57.5023 241.189 57.117C240.854 56.3287 240.721 55.4694 240.803 54.617C240.731 53.7717 240.857 52.9212 241.171 52.133C241.417 51.733 241.995 51.533 242.924 51.533H244.94V57.59Z" fill="#30B88E"/>
<path d="M250.829 45.817C250.665 45.8075 250.5 45.8317 250.345 45.8881C250.19 45.9445 250.048 46.0319 249.928 46.1449C249.808 46.2579 249.712 46.3942 249.647 46.5453C249.582 46.6965 249.548 46.8594 249.548 47.024C249.548 47.1886 249.582 47.3515 249.647 47.5027C249.712 47.6539 249.808 47.7901 249.928 47.9031C250.048 48.0161 250.19 48.1035 250.345 48.1599C250.5 48.2163 250.665 48.2405 250.829 48.231C251.67 48.231 252.09 47.8287 252.091 47.024C252.092 46.2193 251.671 45.817 250.829 45.817Z" fill="#30B88E"/>
<path d="M250.024 49.788H251.618C251.688 49.788 251.754 49.8156 251.804 49.8647C251.853 49.9139 251.881 49.9805 251.881 50.05V59.199C251.881 59.2685 251.853 59.3351 251.804 59.3843C251.754 59.4334 251.688 59.461 251.618 59.461H250.023C249.953 59.461 249.886 59.4334 249.837 59.3843C249.788 59.3351 249.76 59.2685 249.76 59.199V50.051C249.76 49.9812 249.788 49.9143 249.837 49.865C249.887 49.8157 249.954 49.788 250.024 49.788Z" fill="#30B88E"/>
<path d="M261.328 49.893C260.411 49.7563 259.485 49.6921 258.558 49.701C256.736 49.701 255.737 49.911 255.088 50.701C254.457 51.488 254.3 52.537 254.3 54.619C254.3 56.631 254.562 57.943 255.101 58.59C255.64 59.237 256.785 59.552 258.554 59.552C259.481 59.5611 260.408 59.4966 261.324 59.359C261.401 59.3514 261.471 59.3141 261.52 59.2552C261.57 59.1963 261.594 59.1205 261.588 59.044V57.977C261.588 57.803 261.5 57.715 261.307 57.715H258.554C257.644 57.715 257.065 57.523 256.802 57.115C256.486 56.3215 256.36 55.4655 256.434 54.615C256.358 53.7696 256.484 52.9182 256.802 52.131C257.065 51.731 257.644 51.531 258.554 51.531H261.307C261.5 51.531 261.588 51.444 261.588 51.269V50.202C261.593 50.1271 261.568 50.0532 261.52 49.9956C261.472 49.9381 261.403 49.9013 261.328 49.893Z" fill="#30B88E"/>
<path d="M267.094 49.7C266.125 49.6861 265.157 49.7621 264.202 49.927C264.01 49.979 263.957 49.997 263.957 50.207V51.274C263.957 51.484 264.01 51.536 264.22 51.536H267.094C268.497 51.536 269.075 51.956 269.075 52.936V53.845H266.533C264.237 53.845 263.203 54.51 263.203 56.627C263.142 57.0591 263.187 57.4994 263.334 57.9105C263.48 58.3216 263.724 58.6913 264.045 58.988C264.928 59.4308 265.916 59.6244 266.902 59.548C268.228 59.5947 269.554 59.4653 270.846 59.163C270.953 59.1297 271.045 59.0617 271.109 58.9698C271.173 58.8779 271.203 58.7675 271.197 58.656V52.568C271.197 50.61 270.091 49.7 267.094 49.7ZM269.075 57.589C268.419 57.7311 267.749 57.7956 267.077 57.781C265.744 57.781 265.307 57.519 265.307 56.539C265.307 55.682 265.692 55.367 266.656 55.367H269.075V57.589Z" fill="#30B88E"/>
<path d="M278.908 54.319L276.612 53.479C275.964 53.234 275.648 52.879 275.648 52.447V52.237C275.648 51.73 276.034 51.467 276.804 51.467H280.03C280.223 51.467 280.311 51.38 280.311 51.205V50.173C280.311 50.016 280.223 49.928 280.048 49.893C279.143 49.7622 278.229 49.698 277.313 49.701C274.876 49.701 273.545 50.278 273.545 52.045V52.394C273.499 52.9579 273.648 53.5204 273.967 53.9883C274.285 54.4561 274.755 54.8011 275.297 54.966L277.611 55.84C278.383 56.12 278.613 56.4 278.613 56.84V57.015C278.613 57.627 278.262 57.767 277.071 57.767H273.664C273.626 57.7606 273.586 57.7633 273.549 57.7751C273.512 57.7869 273.479 57.8074 273.451 57.8348C273.424 57.8622 273.403 57.8958 273.391 57.9327C273.38 57.9696 273.377 58.0088 273.383 58.047V59.132C273.383 59.289 273.471 59.377 273.647 59.394C274.803 59.4987 275.943 59.5513 277.065 59.552C279.536 59.552 280.694 58.992 280.694 57.103V56.875C280.758 56.3051 280.613 55.7312 280.284 55.2607C279.955 54.7902 279.466 54.4554 278.908 54.319Z" fill="#30B88E"/>
</svg>
